<?xml version="1.0" standalone="no"?>
<!DOCTYPE svg PUBLIC "-//W3C//DTD SVG 20010904//EN"
 "http://www.w3.org/TR/2001/REC-SVG-20010904/DTD/svg10.dtd">
<svg version="1.0" xmlns="http://www.w3.org/2000/svg"
 width="384.000000pt" height="384.000000pt" viewBox="0 0 384.000000 384.000000"
 preserveAspectRatio="xMidYMid meet">
<metadata>
Created by potrace 1.14, written by Peter Selinger 2001-2017
</metadata>
<g transform="translate(0.000000,384.000000) scale(0.100000,-0.100000)"
fill="#000000" stroke="none">
<path d="M1120 2790 c0 -5 -18 -10 -40 -10 -29 0 -40 -4 -40 -15 0 -9 -9 -15
-25 -15 -14 0 -25 -4 -25 -10 0 -5 -7 -10 -15 -10 -8 0 -15 -5 -15 -11 0 -6
-16 -25 -35 -43 -19 -19 -35 -42 -35 -54 0 -11 -7 -22 -15 -26 -11 -4 -15 -20
-15 -55 0 -31 6 -55 15 -65 8 -8 15 -24 15 -35 0 -12 5 -21 10 -21 6 0 10 -7
10 -15 0 -8 7 -15 15 -15 8 0 15 -7 15 -15 0 -8 7 -15 15 -15 8 0 15 -4 15
-10 0 -5 11 -10 25 -10 16 0 25 -6 25 -15 0 -9 9 -15 24 -15 13 0 26 -5 28
-11 2 -6 25 -13 51 -16 26 -3 47 -10 47 -14 0 -5 16 -9 36 -9 19 0 42 -7 50
-15 10 -10 35 -15 75 -15 33 0 59 -4 59 -10 0 -5 9 -10 20 -10 29 0 60 -36 60
-70 0 -37 13 -38 50 -2 41 38 58 52 65 52 4 0 21 16 39 35 19 19 38 35 44 35
6 0 22 11 36 25 14 14 30 25 36 25 5 0 10 7 10 15 0 8 -4 15 -10 15 -5 0 -10
7 -10 15 0 8 -5 15 -11 15 -6 0 -17 6 -25 14 -8 8 -14 19 -14 25 0 6 -11 11
-24 11 -13 0 -26 7 -30 15 -3 9 -19 15 -41 15 -19 0 -35 5 -35 10 0 6 -26 10
-59 10 -43 0 -60 4 -65 15 -4 11 -20 15 -56 15 -27 0 -50 5 -50 10 0 6 -22 10
-50 10 -38 0 -50 4 -50 15 0 8 -4 15 -10 15 -5 0 -10 9 -10 20 0 13 7 20 20
20 11 0 23 7 26 15 5 11 22 15 65 15 46 0 59 -3 59 -15 0 -9 9 -15 25 -15 20
0 25 -5 25 -25 0 -14 4 -25 10 -25 5 0 13 -12 16 -26 6 -24 9 -25 53 -20 25 4
98 11 161 15 63 5 116 9 118 10 1 0 2 19 2 41 0 29 -4 40 -15 40 -9 0 -15 9
-15 25 0 14 -4 25 -10 25 -5 0 -10 8 -10 17 0 20 -46 63 -67 63 -7 0 -13 5
-13 10 0 6 -11 10 -25 10 -16 0 -25 6 -25 15 0 11 -11 15 -40 15 -22 0 -40 5
-40 10 0 6 -73 10 -200 10 -127 0 -200 -4 -200 -10z"/>
<path d="M1887 2730 c-17 -16 -18 -33 -15 -162 2 -119 6 -147 20 -161 18 -18
73 -23 83 -7 3 5 28 12 55 16 28 4 50 10 50 15 0 5 15 9 34 9 18 0 50 7 69 15
20 8 52 15 72 15 19 0 35 4 35 9 0 5 10 11 23 13 18 2 23 10 25 41 2 28 0 37
-12 37 -12 0 -16 11 -16 49 0 28 -4 53 -10 56 -5 3 -10 14 -10 24 0 10 -11 26
-25 35 -20 13 -54 16 -192 15 -150 0 -170 -2 -186 -19z"/>
<path d="M2527 2736 c-10 -8 -21 -30 -24 -50 -3 -20 -10 -36 -14 -36 -5 0 -9
-18 -9 -40 0 -22 -4 -40 -10 -40 -5 0 -10 -11 -10 -25 0 -22 4 -25 35 -25 19
0 35 4 35 9 0 5 25 12 55 16 30 3 55 11 55 16 0 5 23 9 50 9 28 0 50 4 50 9 0
4 21 11 47 14 26 3 49 10 51 16 2 6 14 11 27 11 33 0 55 26 55 63 0 61 -19 67
-208 67 -125 -1 -172 -4 -185 -14z"/>
<path d="M2500 2460 c-8 -5 -27 -10 -42 -10 -19 0 -28 -5 -28 -16 0 -8 -7 -22
-15 -30 -8 -9 -16 -32 -17 -52 -1 -32 -2 -30 -7 13 l-6 50 -41 3 c-28 2 -47
-2 -57 -12 -9 -9 -32 -16 -51 -16 -20 0 -36 -4 -36 -9 0 -5 -10 -11 -22 -13
-20 -3 -23 -10 -26 -55 -2 -43 0 -53 12 -53 12 0 16 -11 16 -40 0 -22 5 -40
10 -40 6 0 10 -20 10 -45 0 -31 5 -47 15 -51 9 -4 15 -19 15 -40 0 -19 5 -34
10 -34 6 0 10 -18 10 -40 0 -29 4 -40 15 -40 9 0 15 -9 15 -25 l0 -25 115 0
115 0 0 25 c0 16 6 25 15 25 9 0 15 9 15 25 0 14 5 25 10 25 6 0 10 23 10 50
0 38 4 50 15 50 9 0 15 9 15 25 0 14 5 25 10 25 6 0 10 23 10 50 0 38 4 50 15
50 11 0 15 11 15 40 0 22 5 40 10 40 6 0 10 -78 10 -215 l0 -215 130 0 130 0
0 295 0 295 -202 0 c-114 0 -210 -5 -218 -10z"/>
<path d="M2080 2331 c0 -5 -11 -12 -25 -15 -14 -4 -25 -11 -25 -16 0 -6 -13
-10 -30 -10 -16 0 -30 -4 -30 -10 0 -5 -11 -12 -25 -16 -14 -3 -25 -10 -25
-14 0 -5 -10 -10 -22 -12 -23 -3 -23 -5 -26 -180 l-2 -178 130 0 130 0 0 230
0 230 -25 0 c-14 0 -25 -4 -25 -9z"/>
<path d="M840 2165 c0 -30 5 -55 10 -55 6 0 10 -11 10 -25 0 -14 7 -28 15 -31
8 -4 15 -15 15 -25 0 -10 5 -19 10 -19 6 0 10 -7 10 -15 0 -8 6 -15 14 -15 8
0 16 -7 20 -15 3 -8 15 -15 26 -15 11 0 20 -4 20 -10 0 -5 11 -10 25 -10 16 0
25 -6 25 -15 0 -11 12 -15 50 -15 28 0 50 -4 50 -10 0 -5 14 -10 30 -10 17 0
30 5 30 10 0 6 7 10 16 10 9 0 30 14 46 30 15 17 33 30 39 30 7 0 26 15 43 34
18 18 43 37 55 41 35 11 7 25 -50 25 -32 0 -49 5 -53 15 -3 8 -17 15 -31 15
-14 0 -25 5 -25 10 0 6 -9 10 -20 10 -15 0 -20 7 -20 25 0 16 -6 25 -15 25
-10 0 -15 10 -15 30 l0 30 -165 0 -165 0 0 -55z"/>
<path d="M1750 2150 c0 -5 -11 -12 -25 -16 -14 -3 -25 -10 -25 -15 0 -5 -7 -9
-15 -9 -8 0 -15 -4 -15 -9 0 -5 -11 -12 -25 -15 -14 -4 -25 -11 -25 -16 0 -6
-6 -10 -13 -10 -7 0 -24 -11 -39 -25 -15 -14 -30 -25 -33 -25 -4 0 -13 -6 -20
-12 -33 -30 -45 -38 -55 -38 -5 0 -10 -7 -10 -15 0 -8 -4 -15 -10 -15 -12 0
-50 -32 -50 -42 0 -5 43 -8 95 -8 57 0 95 4 95 10 0 6 20 10 44 10 34 0 47 5
62 25 10 14 24 25 31 25 7 0 13 6 13 13 0 7 11 21 25 31 14 10 25 27 25 38 0
11 7 26 15 34 8 9 15 33 15 55 0 37 -2 39 -30 39 -16 0 -30 -4 -30 -10z"/>
<path d="M1400 2070 c0 -5 11 -10 25 -10 14 0 25 5 25 10 0 6 -11 10 -25 10
-14 0 -25 -4 -25 -10z"/>
<path d="M2576 1844 c-3 -9 -6 -69 -6 -135 l0 -119 -60 0 -60 0 0 45 c0 33 4
45 15 45 12 0 15 14 15 65 l0 65 -217 -2 -218 -3 -3 -62 c-3 -57 -1 -63 17
-63 10 0 22 -6 24 -12 4 -10 6 -10 6 0 1 9 29 12 107 12 l107 0 -7 -42 c-4
-24 -11 -44 -16 -46 -6 -2 -10 -15 -10 -28 0 -13 -5 -24 -11 -24 -12 0 -39
-25 -39 -37 0 -5 -18 -16 -40 -26 -22 -9 -40 -21 -40 -27 0 -5 -9 -10 -20 -10
-11 0 -20 -4 -20 -10 0 -5 -9 -10 -20 -10 -11 0 -28 -4 -38 -9 -9 -5 -25 -12
-34 -15 -23 -7 -25 -56 -3 -56 8 0 15 -7 15 -15 0 -8 4 -15 9 -15 5 0 13 -9
16 -20 7 -21 55 -29 55 -10 0 6 11 10 25 10 14 0 25 5 25 10 0 6 6 10 14 10 8
0 21 6 28 13 7 7 29 20 48 29 19 9 42 26 50 37 8 12 20 21 27 21 7 0 13 6 13
13 0 7 11 21 25 31 14 10 25 27 25 37 0 11 5 19 10 19 6 0 10 11 10 25 0 45
19 26 22 -22 l3 -48 72 -3 72 -3 3 -132 3 -132 78 -3 77 -3 0 330 c0 373 8
341 -90 341 -44 0 -59 -4 -64 -16z"/>
<path d="M3406 1838 c-3 -13 -6 -51 -6 -85 l0 -63 -75 0 -75 0 0 -50 0 -50
-36 36 -35 37 6 72 c9 89 -3 105 -75 105 -77 0 -80 -3 -80 -81 0 -55 -3 -69
-15 -69 -9 0 -15 -9 -15 -25 0 -14 -4 -25 -10 -25 -5 0 -10 -11 -10 -25 0 -14
-5 -25 -11 -25 -7 0 -22 -11 -35 -25 -13 -14 -30 -25 -39 -25 -8 0 -15 -4 -15
-10 0 -5 -7 -10 -15 -10 -8 0 -15 -7 -15 -15 0 -9 -9 -15 -25 -15 -20 0 -25
-5 -25 -25 0 -20 5 -25 25 -25 14 0 25 -5 25 -11 0 -19 28 -39 54 -39 14 0 26
4 26 9 0 5 11 12 25 15 14 4 25 11 25 16 0 6 6 10 13 10 7 0 19 9 27 20 8 11
20 20 27 20 7 0 13 5 13 11 0 16 26 39 45 39 9 0 31 -16 49 -35 19 -19 38 -35
45 -35 6 0 11 -4 11 -10 0 -5 9 -10 19 -10 10 0 21 -7 25 -15 6 -17 86 -21 86
-4 0 14 25 39 39 39 6 0 11 14 11 30 0 25 -4 30 -25 30 -14 0 -25 5 -25 10 0
6 -11 10 -25 10 -15 0 -25 6 -25 14 0 8 -8 17 -17 19 -10 3 15 5 55 6 l72 1 0
-80 c0 -65 3 -81 18 -89 12 -7 -51 -10 -210 -11 l-228 0 0 -70 0 -70 218 -3
217 -2 -217 -3 -218 -2 0 -125 0 -125 290 0 290 0 0 50 0 50 -225 0 c-143 0
-225 4 -225 10 0 6 82 10 225 10 l225 0 0 134 c0 98 -3 136 -12 140 -10 5 -10
7 0 12 9 4 12 59 12 224 0 247 7 230 -90 230 -51 0 -58 -2 -64 -22z"/>
<path d="M505 1800 c-3 -5 -17 -10 -30 -10 -13 0 -30 -7 -39 -15 -8 -8 -17
-15 -21 -15 -10 0 -35 -28 -35 -39 0 -6 -7 -11 -15 -11 -10 0 -15 -11 -15 -35
0 -19 -4 -35 -10 -35 -5 0 -10 -13 -10 -30 0 -16 5 -30 10 -30 6 0 10 -16 10
-35 0 -24 5 -35 15 -35 8 0 15 -7 15 -15 0 -19 36 -55 55 -55 8 0 15 -7 15
-15 0 -9 9 -15 25 -15 14 0 25 -4 25 -10 0 -5 14 -10 30 -10 20 0 30 -5 30
-15 0 -8 9 -15 19 -15 11 0 23 -4 26 -10 3 -5 14 -10 25 -10 11 0 20 -10 24
-25 4 -14 11 -25 16 -25 6 0 10 -9 10 -20 0 -11 -4 -20 -9 -20 -5 0 -12 -11
-15 -25 -5 -18 -13 -25 -31 -25 -13 0 -27 -5 -31 -11 -4 -6 -20 -8 -40 -5 -19
3 -50 9 -69 12 -19 3 -35 10 -35 15 0 5 -9 9 -20 9 -11 0 -20 5 -20 11 0 19
-28 39 -54 39 -26 0 -26 -1 -26 -75 0 -47 4 -75 11 -75 6 0 17 -6 24 -12 8 -7
21 -19 29 -25 8 -7 36 -13 61 -13 25 0 45 -4 45 -10 0 -5 25 -10 55 -10 30 0
55 5 55 10 0 6 23 10 50 10 28 0 50 4 50 9 0 5 11 12 25 15 14 4 25 11 25 16
0 6 7 10 15 10 9 0 15 9 15 25 0 14 5 25 10 25 6 0 10 11 10 25 0 16 6 25 15
25 12 0 15 13 15 60 0 47 -3 60 -15 60 -9 0 -15 9 -15 25 0 14 -4 25 -10 25
-5 0 -10 7 -10 15 0 8 -7 15 -15 15 -8 0 -15 5 -15 10 0 6 -11 10 -25 10 -14
0 -25 5 -25 11 0 19 -28 39 -54 39 -14 0 -26 4 -26 10 0 5 -11 12 -25 16 -14
3 -25 10 -25 15 0 5 -9 9 -21 9 -22 0 -49 22 -49 39 0 6 -4 11 -10 11 -5 0
-10 9 -10 20 0 11 5 20 10 20 6 0 10 7 10 15 0 8 7 15 15 15 8 0 15 5 15 10 0
6 20 10 45 10 25 0 45 -4 45 -10 0 -5 14 -10 30 -10 20 0 39 -9 54 -25 14 -14
34 -25 50 -25 26 0 26 1 26 75 0 73 -1 75 -25 75 -16 0 -25 6 -25 15 0 10 -10
15 -30 15 -16 0 -30 5 -30 10 0 6 -35 10 -84 10 -47 0 -88 -4 -91 -10z"/>
<path d="M1390 1800 c0 -6 -103 -10 -290 -10 l-290 0 0 -65 0 -65 110 0 110 0
0 -295 0 -295 70 0 c54 0 70 3 70 14 0 8 6 17 13 20 10 5 10 7 0 12 -10 4 -13
69 -13 275 l0 269 120 0 c119 0 120 0 126 25 3 14 10 25 15 25 5 0 9 -11 9
-25 0 -14 5 -25 10 -25 6 0 10 -7 10 -15 0 -8 7 -15 15 -15 8 0 15 -9 15 -20
0 -19 6 -29 38 -65 6 -7 12 -18 12 -24 0 -6 5 -11 10 -11 6 0 10 -9 10 -20 0
-11 7 -23 15 -26 9 -4 15 -19 15 -40 0 -24 -5 -34 -15 -34 -8 0 -15 -9 -15
-20 0 -11 -4 -20 -10 -20 -5 0 -10 -7 -10 -15 0 -8 -7 -15 -15 -15 -9 0 -15
-9 -15 -21 0 -12 -8 -29 -19 -38 -10 -9 -21 -26 -25 -38 -4 -13 -12 -23 -17
-23 -5 0 -9 -11 -9 -25 0 -14 -5 -25 -11 -25 -19 0 -39 -28 -39 -54 0 -26 1
-26 73 -26 60 0 75 3 90 20 9 11 17 26 17 34 0 8 7 16 15 20 8 3 15 15 15 26
0 11 5 20 10 20 6 0 10 7 10 15 0 8 4 15 10 15 5 0 12 11 16 25 3 14 10 25 15
25 5 0 9 9 9 20 0 11 5 20 10 20 6 0 10 -7 10 -16 0 -9 11 -27 25 -40 14 -13
25 -32 25 -44 0 -11 4 -20 10 -20 5 0 12 -11 16 -25 3 -14 9 -25 13 -25 4 0
15 -16 24 -35 l17 -35 75 0 75 0 0 30 c0 17 -4 30 -10 30 -5 0 -10 9 -10 20 0
11 -7 20 -15 20 -8 0 -15 7 -15 15 0 8 -4 15 -10 15 -5 0 -10 11 -10 25 0 16
-6 25 -15 25 -9 0 -15 9 -15 21 0 22 -22 49 -39 49 -6 0 -11 11 -11 25 0 14
-4 25 -10 25 -5 0 -10 7 -10 15 0 8 -7 15 -15 15 -10 0 -15 10 -15 30 0 20 5
30 15 30 9 0 15 9 15 25 0 14 5 25 10 25 6 0 10 5 10 10 0 10 8 22 38 55 6 7
12 23 12 34 0 12 6 21 15 21 8 0 15 7 15 15 0 8 5 15 10 15 6 0 10 7 10 15 0
9 11 26 25 39 18 17 25 34 25 60 0 34 -12 47 -25 26 -3 -5 -32 -10 -63 -10
-62 0 -92 -20 -92 -60 0 -11 -7 -20 -15 -20 -9 0 -15 -9 -15 -21 0 -12 -8 -29
-19 -38 -10 -9 -21 -26 -25 -38 -4 -13 -12 -23 -17 -23 -5 0 -9 -7 -9 -15 0
-27 -16 -16 -29 21 -7 19 -19 38 -27 41 -8 3 -14 14 -14 24 0 19 -6 28 -37 64
-7 7 -13 16 -13 19 0 3 -8 15 -17 26 -14 16 -30 20 -75 20 -31 0 -60 5 -63 10
-3 6 -10 10 -16 10 -5 0 -9 -4 -9 -10z"/>
<path d="M2140 1135 l0 -135 305 0 305 0 0 50 c0 28 -4 50 -10 50 -5 0 -10 7
-10 15 0 13 -31 15 -215 15 l-215 0 0 70 0 70 -80 0 -80 0 0 -135z"/>
</g>
</svg>
